<svg viewBox="0 0 2252.0344 27.0205" x="0" y="0" fill="none" xmlns="http://www.w3.org/2000/svg"><path id="Vector 1" data-node-id="79:30" d="M0.10941,26.5326l70.37979,-15.78c50.5908,-11.35 103.0338,-11.65 153.7508,-0.88l7.401,1.57c46.838,9.94 95.288,9.46 141.919,-1.41v0v0c46.59,-10.86 95.041,-10.96 141.676,-0.3l3.009,0.69c46.379,10.6 94.574,10.39 140.859,-0.61v0c45.075,-10.72 91.977,-11.2 137.262,-1.41l10.424,2.25c48.468,10.47 98.584,10.74 147.161,0.79l22.68,-4.65c42.61,-8.73 86.62,-7.94 128.88,2.31l8.43,2.04c41.65,10.11 85.15,9.78 126.65,-0.94v0c42.33,-10.94 87.05,-10.97 129.44,-0.25v0c42.81,10.82 88.02,10.78 130.77,-0.26v0c41.06,-10.61 84.1,-11.17 125.41,-1.6l4.38,1.01c39.83,9.22 81.19,9.67 121.21,1.31l12.92,-2.7c44.83,-9.36 91.09,-9.61 136.03,-0.75l20.12,3.96c40.69,8.03 82.61,7.34 123.01,-2.01v0c43.71,-10.12 89.15,-10.08 132.85,0.1l75.19,17.52" stroke="#007AB6" stroke-opacity="0.9" xmlns="http://www.w3.org/2000/svg"/></svg>